<svg width="319px" height="638px" viewBox="918 126 319 638" version="1.1" xmlns="http://www.w3.org/2000/svg" xmlns:xlink="http://www.w3.org/1999/xlink">
    <g id="Group-3" stroke="none" stroke-width="1" fill="none" fill-rule="evenodd" transform="translate(918.000000, 127.000000)">
        <g id="Group-14-Copy" transform="translate(246.000000, 203.000000) scale(1, -1) translate(-246.000000, -203.000000) translate(188.000000, 145.000000)" fill-rule="nonzero" fill="#2C2C46">
            <g id="emoji" transform="translate(0.322250, 0.000000)">
                <path d="M57.4715909,115.613781 C25.7309077,115.613781 0,89.7327547 0,57.8068906 C0,25.8810265 25.7309077,0 57.4715909,0 C89.2122741,0 114.943182,25.8810265 114.943182,57.8068906 C114.943182,89.7327547 89.2122741,115.613781 57.4715909,115.613781 Z M57.4715909,103.22659 C82.4106991,103.22659 102.627841,82.8914981 102.627841,57.8068906 C102.627841,32.7222831 82.4106991,12.3871908 57.4715909,12.3871908 C32.5324827,12.3871908 12.3153409,32.7222831 12.3153409,57.8068906 C12.3153409,82.8914981 32.5324827,103.22659 57.4715909,103.22659 Z" id="Oval-8"></path>
                <path d="M57.4715909,97.0329949 C37.066866,97.0329949 20.5255682,80.3951921 20.5255682,59.8714224 C20.5255682,56.8210556 23.7007683,54.8237452 26.4275041,56.1589011 C26.7070613,56.2920124 26.8733426,56.3694284 27.0664506,56.4576807 C27.6297209,56.7151008 28.288243,57.0041919 29.0337804,57.3170962 C31.1801022,58.2179141 33.5780656,59.1211229 36.1606828,59.9641814 C43.4816998,62.3540229 50.7759912,63.7826933 57.4715909,63.7826933 C64.1671906,63.7826933 71.4614821,62.3540229 78.782499,59.9641814 C81.3651162,59.1211229 83.7630796,58.2179141 85.9094014,57.3170962 C86.6549389,57.0041919 87.3134609,56.7151008 87.8767312,56.4576807 C88.0698393,56.3694284 88.2361205,56.2920124 88.374551,56.226416 C91.2424135,54.8237452 94.4176136,56.8210556 94.4176136,59.8714224 C94.4176136,80.3951921 77.8763158,97.0329949 57.4715909,97.0329949 Z M57.4715909,88.7748676 C71.1232549,88.7748676 82.5514713,79.1996175 85.4799966,66.3619774 C84.1508801,66.8592574 82.7604086,67.3477958 81.3169328,67.8189979 C73.2437736,70.4543655 65.1438889,72.0408205 57.4715909,72.0408205 C49.7992929,72.0408205 41.6994082,70.4543655 33.626249,67.8189979 C32.1827732,67.3477958 30.7923018,66.8592574 29.4631852,66.3619774 C32.3917105,79.1996175 43.8199269,88.7748676 57.4715909,88.7748676 Z" id="Oval-8"></path>
                <path d="M38.9985795,30.9679771 L38.9985795,41.2906361 C38.9985795,43.571055 40.8365015,45.4196997 43.1036932,45.4196997 C45.3708848,45.4196997 47.2088068,43.571055 47.2088068,41.2906361 L47.2088068,30.9679771 C47.2088068,28.6875582 45.3708848,26.8389135 43.1036932,26.8389135 C40.8365015,26.8389135 38.9985795,28.6875582 38.9985795,30.9679771 Z" id="Line"></path>
                <path d="M65.6818182,30.9679771 L65.6818182,41.2906361 C65.6818182,43.571055 67.5197402,45.4196997 69.7869318,45.4196997 C72.0541235,45.4196997 73.8920455,43.571055 73.8920455,41.2906361 L73.8920455,30.9679771 C73.8920455,28.6875582 72.0541235,26.8389135 69.7869318,26.8389135 C67.5197402,26.8389135 65.6818182,28.6875582 65.6818182,30.9679771 Z" id="Line-Copy-2"></path>
            </g>
        </g>
        <g id="Group-14-Copy-2" transform="translate(158.000000, 44.000000) scale(1, -1) translate(-158.000000, -44.000000) translate(114.000000, -0.000000)" fill-rule="nonzero" fill="#2C2C46">
            <g id="emoji" transform="translate(0.512626, 0.000000)">
                <path d="M43.4659091,87.7070064 C19.4603504,87.7070064 0,68.0731242 0,43.8535032 C0,19.6338822 19.4603504,0 43.4659091,0 C67.4714678,0 86.9318182,19.6338822 86.9318182,43.8535032 C86.9318182,68.0731242 67.4714678,87.7070064 43.4659091,87.7070064 Z M43.4659091,78.3098271 C62.3274195,78.3098271 77.6176948,62.8832054 77.6176948,43.8535032 C77.6176948,24.8238009 62.3274195,9.39717925 43.4659091,9.39717925 C24.6043987,9.39717925 9.31412338,24.8238009 9.31412338,43.8535032 C9.31412338,62.8832054 24.6043987,78.3098271 43.4659091,78.3098271 Z" id="Oval-8"></path>
                <path d="M43.4659091,73.6112375 C28.0337642,73.6112375 15.523539,60.9894561 15.523539,45.4196997 C15.523539,43.1056284 17.9249508,41.5904274 19.9871879,42.6033043 C20.1986178,42.7042853 20.3243767,42.7630146 20.4704248,42.8299647 C20.8964276,43.0252489 21.3944695,43.2445594 21.9583213,43.4819351 C23.5815899,44.1653142 25.3951757,44.850507 27.3484156,45.4900686 C32.8853191,47.3030518 38.4020102,48.3868708 43.4659091,48.3868708 C48.529808,48.3868708 54.046499,47.3030518 59.5834026,45.4900686 C61.5366425,44.850507 63.3502282,44.1653142 64.9734969,43.4819351 C65.5373487,43.2445594 66.0353906,43.0252489 66.4613933,42.8299647 C66.6074415,42.7630146 66.7332004,42.7042853 66.8378957,42.6545225 C69.0068674,41.5904274 71.4082792,43.1056284 71.4082792,45.4196997 C71.4082792,60.9894561 58.898054,73.6112375 43.4659091,73.6112375 Z M43.4659091,67.3464513 C53.790697,67.3464513 62.4338859,60.0824684 64.6487369,50.3435691 C63.6435227,50.720816 62.5919057,51.0914313 61.5002013,51.4488949 C55.3944506,53.4481393 49.2684874,54.6516569 43.4659091,54.6516569 C37.6633308,54.6516569 31.5373675,53.4481393 25.4316169,51.4488949 C24.3399125,51.0914313 23.2882955,50.720816 22.2830812,50.3435691 C24.4979323,60.0824684 33.1411212,67.3464513 43.4659091,67.3464513 Z" id="Oval-8"></path>
                <path d="M29.494724,23.4929481 L29.494724,31.3239308 C29.494724,33.0539038 30.8847491,34.4563239 32.5994318,34.4563239 C34.3141146,34.4563239 35.7041396,33.0539038 35.7041396,31.3239308 L35.7041396,23.4929481 C35.7041396,21.7629752 34.3141146,20.3605551 32.5994318,20.3605551 C30.8847491,20.3605551 29.494724,21.7629752 29.494724,23.4929481 Z" id="Line"></path>
                <path d="M49.6753247,23.4929481 L49.6753247,31.3239308 C49.6753247,33.0539038 51.0653497,34.4563239 52.7800325,34.4563239 C54.4947152,34.4563239 55.8847403,33.0539038 55.8847403,31.3239308 L55.8847403,23.4929481 C55.8847403,21.7629752 54.4947152,20.3605551 52.7800325,20.3605551 C51.0653497,20.3605551 49.6753247,21.7629752 49.6753247,23.4929481 Z" id="Line-Copy-2"></path>
            </g>
        </g>
        <g id="Group-14-Copy-3" transform="translate(82.500000, 343.500000) scale(1, -1) translate(-82.500000, -343.500000) translate(0.000000, 261.000000)" fill-rule="nonzero" fill="#2C2C46">
            <g id="emoji" transform="translate(0.718154, 0.000000)">
                <path d="M81.6193182,164.450637 C36.5422135,164.450637 0,127.637108 0,82.2253185 C0,36.813529 36.5422135,0 81.6193182,0 C126.696423,0 163.238636,36.813529 163.238636,82.2253185 C163.238636,127.637108 126.696423,164.450637 81.6193182,164.450637 Z M81.6193182,146.830926 C117.037043,146.830926 145.748782,117.90601 145.748782,82.2253185 C145.748782,46.5446268 117.037043,17.6197111 81.6193182,17.6197111 C46.201593,17.6197111 17.4898539,46.5446268 17.4898539,82.2253185 C17.4898539,117.90601 46.201593,146.830926 81.6193182,146.830926 Z" id="Oval-8"></path>
                <path d="M81.6193182,138.02107 C52.6411794,138.02107 29.1497565,114.35523 29.1497565,85.161937 C29.1497565,80.8230532 33.6590743,77.9820513 37.5314974,79.8811955 C37.9285157,80.0705349 38.164663,80.1806524 38.4389089,80.3061837 C39.2388473,80.6723417 40.1740593,81.0835488 41.2328478,81.5286283 C44.2809855,82.8099641 47.6864965,84.0947006 51.354247,85.2938787 C61.7513215,88.6932222 72.1104413,90.7253827 81.6193182,90.7253827 C91.1281951,90.7253827 101.487315,88.6932222 111.884389,85.2938787 C115.55214,84.0947006 118.957651,82.8099641 122.005789,81.5286283 C123.064577,81.0835488 123.999789,80.6723417 124.799728,80.3061837 C125.073973,80.1806524 125.310121,80.0705349 125.506715,79.9772297 C129.579562,77.9820513 134.08888,80.8230532 134.08888,85.161937 C134.08888,114.35523 110.597457,138.02107 81.6193182,138.02107 Z M81.6193182,126.274596 C101.006975,126.274596 117.236963,112.654628 121.395962,94.394192 C119.508393,95.10153 117.53369,95.7964337 115.483711,96.466678 C104.018468,100.215261 92.5152708,102.471857 81.6193182,102.471857 C70.7233655,102.471857 59.2201679,100.215261 47.7549251,96.466678 C45.7049468,95.7964337 43.7302437,95.10153 41.8426748,94.394192 C46.0016729,112.654628 62.231661,126.274596 81.6193182,126.274596 Z" id="Oval-8"></path>
                <path d="M55.3845373,44.0492778 L55.3845373,58.7323703 C55.3845373,61.9760696 57.9946954,64.6056074 61.2144886,64.6056074 C64.4342818,64.6056074 67.0444399,61.9760696 67.0444399,58.7323703 L67.0444399,44.0492778 C67.0444399,40.8055785 64.4342818,38.1760407 61.2144886,38.1760407 C57.9946954,38.1760407 55.3845373,40.8055785 55.3845373,44.0492778 Z" id="Line"></path>
                <path d="M93.2792208,44.0492778 L93.2792208,58.7323703 C93.2792208,61.9760696 95.8893789,64.6056074 99.1091721,64.6056074 C102.328965,64.6056074 104.939123,61.9760696 104.939123,58.7323703 L104.939123,44.0492778 C104.939123,40.8055785 102.328965,38.1760407 99.1091721,38.1760407 C95.8893789,38.1760407 93.2792208,40.8055785 93.2792208,44.0492778 Z" id="Line-Copy-2"></path>
            </g>
        </g>
        <g id="Group-14-Copy-4" transform="translate(261.500000, 461.500000) scale(1, -1) translate(-261.500000, -461.500000) translate(204.000000, 404.000000)">
            <ellipse id="Oval-2-Copy" fill="#4CFFA5" cx="48.5634861" cy="49.8506493" rx="48.5634861" ry="49.0271945"></ellipse>
            <g id="emoji" transform="translate(5.214876, 5.000000)" fill-rule="nonzero" fill="#2C2C46">
                <path d="M54.3144252,109.726042 C24.3173965,109.726042 0,85.163031 0,54.8630211 C0,24.5630112 24.3173965,0 54.3144252,0 C84.311454,0 108.62885,24.5630112 108.62885,54.8630211 C108.62885,85.163031 84.311454,109.726042 54.3144252,109.726042 Z M54.3144252,97.9696806 C77.8835193,97.9696806 96.9900451,78.6701718 96.9900451,54.8630211 C96.9900451,31.0558705 77.8835193,11.7563617 54.3144252,11.7563617 C30.7453312,11.7563617 11.6388054,31.0558705 11.6388054,54.8630211 C11.6388054,78.6701718 30.7453312,97.9696806 54.3144252,97.9696806 Z" id="Oval-8"></path>
                <path d="M54.3144252,92.0914998 C35.030621,92.0914998 19.398009,76.3009925 19.398009,56.8224147 C19.398009,53.9273907 22.3987815,52.0317952 24.9757258,53.2989571 C25.2399257,53.4252896 25.3970724,53.498763 25.5795722,53.582521 C26.1118996,53.8268318 26.7342461,54.1012006 27.4388279,54.39817 C29.467243,55.2531129 31.7334757,56.1103249 34.1742185,56.9104499 C41.09306,59.1785865 47.9866441,60.5345006 54.3144252,60.5345006 C60.6422064,60.5345006 67.5357905,59.1785865 74.454632,56.9104499 C76.8953748,56.1103249 79.1616075,55.2531129 81.1900226,54.39817 C81.8946043,54.1012006 82.5169509,53.8268318 83.0492783,53.582521 C83.2317781,53.498763 83.3889248,53.4252896 83.5197507,53.3630337 C86.230069,52.0317952 89.2308415,53.9273907 89.2308415,56.8224147 C89.2308415,76.3009925 73.5982294,92.0914998 54.3144252,92.0914998 Z M54.3144252,84.2539253 C67.2161436,84.2539253 78.0165582,75.1663036 80.7842068,62.9824323 C79.5281044,63.4543879 78.2140177,63.9180469 76.8498383,64.3652526 C69.220173,66.8664117 61.5652504,68.372075 54.3144252,68.372075 C47.0636001,68.372075 39.4086775,66.8664117 31.7790122,64.3652526 C30.4148328,63.9180469 29.1007461,63.4543879 27.8446437,62.9824323 C30.6122923,75.1663036 41.4127068,84.2539253 54.3144252,84.2539253 Z" id="Oval-8"></path>
                <path d="M36.8562171,29.3909042 L36.8562171,39.1878722 C36.8562171,41.3521587 38.593174,43.1066595 40.7358189,43.1066595 C42.8784638,43.1066595 44.6154207,41.3521587 44.6154207,39.1878722 L44.6154207,29.3909042 C44.6154207,27.2266178 42.8784638,25.472117 40.7358189,25.472117 C38.593174,25.472117 36.8562171,27.2266178 36.8562171,29.3909042 Z" id="Line"></path>
                <path d="M62.0736289,29.3909042 L62.0736289,39.1878722 C62.0736289,41.3521587 63.8105857,43.1066595 65.9532307,43.1066595 C68.0958756,43.1066595 69.8328325,41.3521587 69.8328325,39.1878722 L69.8328325,29.3909042 C69.8328325,27.2266178 68.0958756,25.472117 65.9532307,25.472117 C63.8105857,25.472117 62.0736289,27.2266178 62.0736289,29.3909042 Z" id="Line-Copy-2"></path>
            </g>
        </g>
        <g id="Group-14-Copy-6" transform="translate(149.000000, 601.500000) scale(1, -1) translate(-149.000000, -601.500000) translate(113.000000, 566.000000)" fill-rule="nonzero" fill="#2C2C46">
            <g id="emoji" transform="translate(0.748639, 0.000000)">
                <path d="M35.1056651,70.8647356 C15.7173416,70.8647356 0,55.0011242 0,35.4323678 C0,15.8636114 15.7173416,0 35.1056651,0 C54.4939886,0 70.2113302,15.8636114 70.2113302,35.4323678 C70.2113302,55.0011242 54.4939886,70.8647356 35.1056651,70.8647356 Z M35.1056651,63.2720854 C50.3393478,63.2720854 62.6886877,50.8078193 62.6886877,35.4323678 C62.6886877,20.0569164 50.3393478,7.59265025 35.1056651,7.59265025 C19.8719824,7.59265025 7.52264252,20.0569164 7.52264252,35.4323678 C7.52264252,50.8078193 19.8719824,63.2720854 35.1056651,63.2720854 Z" id="Oval-8"></path>
                <path d="M35.1056651,59.4757603 C22.6417429,59.4757603 12.5377375,49.2777243 12.5377375,36.6978095 C12.5377375,34.8281065 14.4772612,33.6038677 16.1428471,34.4222431 C16.3136105,34.5038329 16.4151809,34.5512845 16.5331381,34.6053782 C16.8772034,34.7631622 17.2794518,34.9403587 17.7348522,35.1321515 C19.0459009,35.6843021 20.5106611,36.2379182 22.0882144,36.7546656 C26.5601485,38.2195038 31.0157578,39.0951983 35.1056651,39.0951983 C39.1955724,39.0951983 43.6511817,38.2195038 48.1231158,36.7546656 C49.7006691,36.2379182 51.1654293,35.6843021 52.476478,35.1321515 C52.9318784,34.9403587 53.3341268,34.7631622 53.6781921,34.6053782 C53.7961492,34.5512845 53.8977197,34.5038329 53.9822779,34.4636259 C55.734069,33.6038677 57.6735927,34.8281065 57.6735927,36.6978095 C57.6735927,49.2777243 47.5695873,59.4757603 35.1056651,59.4757603 Z M35.1056651,54.4139934 C43.4445806,54.4139934 50.4253364,48.5449044 52.2141825,40.6761542 C51.4023114,40.9809588 50.5529626,41.2804053 49.6712369,41.5692256 C44.7398679,43.1845575 39.792174,44.1569651 35.1056651,44.1569651 C30.4191562,44.1569651 25.4714623,43.1845575 20.5400933,41.5692256 C19.6583675,41.2804053 18.8090188,40.9809588 17.9971477,40.6761542 C19.7859938,48.5449044 26.7667495,54.4139934 35.1056651,54.4139934 Z" id="Oval-8"></path>
                <path d="M23.8217013,18.9816256 L23.8217013,25.3088342 C23.8217013,26.7066025 24.9443686,27.8397176 26.3292488,27.8397176 C27.7141291,27.8397176 28.8367963,26.7066025 28.8367963,25.3088342 L28.8367963,18.9816256 C28.8367963,17.5838573 27.7141291,16.4507422 26.3292488,16.4507422 C24.9443686,16.4507422 23.8217013,17.5838573 23.8217013,18.9816256 Z" id="Line"></path>
                <path d="M40.1207601,18.9816256 L40.1207601,25.3088342 C40.1207601,26.7066025 41.2434274,27.8397176 42.6283076,27.8397176 C44.0131879,27.8397176 45.1358551,26.7066025 45.1358551,25.3088342 L45.1358551,18.9816256 C45.1358551,17.5838573 44.0131879,16.4507422 42.6283076,16.4507422 C41.2434274,16.4507422 40.1207601,17.5838573 40.1207601,18.9816256 Z" id="Line-Copy-2"></path>
            </g>
        </g>
        <g id="Group-14-Copy-5" transform="translate(80.000000, 161.000000) scale(1, -1) translate(-80.000000, -161.000000) translate(45.000000, 127.000000)">
            <ellipse id="Oval-2-Copy" fill="#4CFFA5" cx="30.2983957" cy="30.3905104" rx="30.2983957" ry="30.2822301"></ellipse>
            <g id="emoji" transform="translate(1.958863, 0.000000)" fill-rule="nonzero" fill="#2C2C46">
                <path d="M33.8863636,67.7735958 C15.1714418,67.7735958 0,52.6019596 0,33.8867979 C0,15.1716362 15.1714418,0 33.8863636,0 C52.6012855,0 67.7727273,15.1716362 67.7727273,33.8867979 C67.7727273,52.6019596 52.6012855,67.7735958 33.8863636,67.7735958 Z M33.8863636,60.5121391 C48.5909451,60.5121391 60.5113636,48.5915678 60.5113636,33.8867979 C60.5113636,19.182028 48.5909451,7.2614567 33.8863636,7.2614567 C19.1817822,7.2614567 7.26136364,19.182028 7.26136364,33.8867979 C7.26136364,48.5915678 19.1817822,60.5121391 33.8863636,60.5121391 Z" id="Oval-8"></path>
                <path d="M33.8863636,56.8814108 C21.8553424,56.8814108 12.1022727,47.1282161 12.1022727,35.0970407 C12.1022727,33.3088947 13.9744323,32.1380575 15.5821685,32.9207351 C15.7470009,32.9987659 15.8450435,33.0441477 15.9589038,33.0958818 C16.2910188,33.2467833 16.6792962,33.4162504 17.1188795,33.5996771 C18.3843925,34.1277428 19.7982781,34.65721 21.3210393,35.1514167 C25.6376527,36.5523582 29.9385083,37.3898547 33.8863636,37.3898547 C37.834219,37.3898547 42.1350745,36.5523582 46.451688,35.1514167 C47.9744492,34.65721 49.3883348,34.1277428 50.6538478,33.5996771 C51.0934311,33.4162504 51.4817085,33.2467833 51.8138235,33.0958818 C51.9276838,33.0441477 52.0257264,32.9987659 52.1073477,32.9603128 C53.798295,32.1380575 55.6704545,33.3088947 55.6704545,35.0970407 C55.6704545,47.1282161 45.9173848,56.8814108 33.8863636,56.8814108 Z M33.8863636,52.0404397 C41.9356492,52.0404397 48.6739471,46.427362 50.4006624,38.9018488 C49.6169895,39.1933578 48.7971406,39.4797424 47.9460393,39.7559643 C43.1859482,41.3008349 38.4100992,42.2308258 33.8863636,42.2308258 C29.3626281,42.2308258 24.5867791,41.3008349 19.826688,39.7559643 C18.9755867,39.4797424 18.1557378,39.1933578 17.3720649,38.9018488 C19.0987802,46.427362 25.837078,52.0404397 33.8863636,52.0404397 Z" id="Oval-8"></path>
                <path d="M22.9943182,18.1536417 L22.9943182,24.2048557 C22.9943182,25.5416529 24.0779926,26.6253412 25.4147727,26.6253412 C26.7515529,26.6253412 27.8352273,25.5416529 27.8352273,24.2048557 L27.8352273,18.1536417 C27.8352273,16.8168445 26.7515529,15.7331562 25.4147727,15.7331562 C24.0779926,15.7331562 22.9943182,16.8168445 22.9943182,18.1536417 Z" id="Line"></path>
                <path d="M38.7272727,18.1536417 L38.7272727,24.2048557 C38.7272727,25.5416529 39.8109471,26.6253412 41.1477273,26.6253412 C42.4845074,26.6253412 43.5681818,25.5416529 43.5681818,24.2048557 L43.5681818,18.1536417 C43.5681818,16.8168445 42.4845074,15.7331562 41.1477273,15.7331562 C39.8109471,15.7331562 38.7272727,16.8168445 38.7272727,18.1536417 Z" id="Line-Copy-2"></path>
            </g>
        </g>
    </g>
</svg>
