<svg width="460px" height="220px" viewBox="1151 174 460 220" version="1.1" xmlns="http://www.w3.org/2000/svg" xmlns:xlink="http://www.w3.org/1999/xlink">
    <defs>
        <rect id="path-1" x="44" y="0" width="191" height="38" rx="19"></rect>
        <mask id="mask-2" maskContentUnits="userSpaceOnUse" maskUnits="objectBoundingBox" x="0" y="0" width="191" height="38" fill="white">
            <use xlink:href="#path-1"></use>
        </mask>
    </defs>
    <g id="Group-10" stroke="none" stroke-width="1" fill="none" fill-rule="evenodd" transform="translate(1155.000000, 178.000000)">
        <g id="Group-7">
            <polygon id="Path-2" stroke="#FBAD8F" stroke-width="6" stroke-linecap="round" stroke-linejoin="round" points="207.951136 123.341057 117.725563 212.435749 0 99"></polygon>
            <ellipse id="Oval-3" stroke="#4CFFFA" stroke-width="8" cx="239.59832" cy="84.5520993" rx="84.59832" ry="84.5520993"></ellipse>
            <g id="Group-4" transform="translate(274.000000, 93.000000)" stroke="#FEBCFF" stroke-width="5" stroke-linecap="round" stroke-linejoin="round">
                <path d="M0,10.357477 L7.97694631,2.71098923 C10.04211,0.731378459 13.3520029,0.761440124 15.3884337,2.79675837 L22.3035869,9.70813336 C24.3316747,11.7351131 27.6169438,11.7380224 29.6474748,9.70860083 L36.4901081,2.86970597 C38.5179376,0.842984389 41.808904,0.84618781 43.8300274,2.8662069 L50.1483913,9.1811188 C52.1742873,11.2059079 55.4522429,11.212575 57.4759236,9.18999995 L64.2954724,2.37417698 C66.3164608,0.354292808 69.5896664,0.350830735 71.6225042,2.38255789 L78.7846267,9.54076741" id="Path-2-Copy"></path>
                <path d="M29.0891841,22.9559032 L37.0661304,15.3094153 C39.131294,13.3298046 42.4411869,13.3598662 44.4776178,15.3951845 L51.3927709,22.3065595 C53.4208587,24.3335392 56.7061279,24.3364485 58.7366588,22.307027 L65.5792922,15.4681321 C67.6071217,13.4414105 70.8980881,13.4446139 72.9192114,15.464633 L79.2375754,21.7795449 C81.2634714,23.804334 84.5414269,23.8110011 86.5651076,21.7884261 L93.3846565,14.9726031 C95.4056449,12.9527189 98.6788504,12.9492569 100.711688,14.980984 L107.873811,22.1391935" id="Path-2-Copy-2"></path>
            </g>
        </g>
        <g id="Group-9" transform="translate(29.000000, 47.000000)">
            <g id="Group-5" transform="translate(0.000000, 28.000000)">
                <ellipse id="Oval-2-Copy" fill="#4CFFA5" cx="52.3586338" cy="60.3300274" rx="52.3586338" ry="52.3300274"></ellipse>
                <ellipse id="Oval-2-Copy" stroke="#2C2C46" stroke-width="6" cx="61.5286993" cy="52.5" rx="52.5286993" ry="52.5"></ellipse>
                <g id="Group" transform="translate(32.000000, 23.000000)" stroke="#2C2C46" stroke-width="10" stroke-linecap="round">
                    <path d="M29.25,0 L29.25,60" id="Line"></path>
                    <path d="M0,30 L60,30" id="Line"></path>
                </g>
            </g>
            <g id="Group-8" transform="translate(192.000000, 0.000000)">
                <g id="slack" fill-rule="nonzero" fill="#2C2C46">
                    <path d="M5.11852729,8.62673328 L14.542898,36.5955489 C15.0653546,38.1460493 16.7528263,38.9817918 18.3119717,38.4622322 C19.871117,37.9426725 20.7115194,36.2645573 20.1890628,34.714057 L10.7646921,6.74524133 C10.2422356,5.19474098 8.55476384,4.35899841 6.99561848,4.87855807 C5.43647311,5.39811772 4.59607076,7.07623292 5.11852729,8.62673328 Z" id="Line" transform="translate(12.653795, 21.670395) rotate(-1.000000) translate(-12.653795, -21.670395) "></path>
                    <path d="M18.5166632,4.18545088 L27.941034,32.1542665 C28.4634905,33.7047669 30.1509622,34.5405095 31.7101076,34.0209498 C33.269253,33.5013901 34.1096553,31.8232749 33.5871988,30.2727746 L24.1628281,2.30395894 C23.6403715,0.753458585 21.9528998,-0.082283981 20.3937544,0.437275672 C18.8346091,0.956835326 17.9942067,2.63495053 18.5166632,4.18545088 Z" id="Line-Copy-10" transform="translate(26.051931, 17.229113) rotate(-1.000000) translate(-26.051931, -17.229113) "></path>
                    <path d="M34.6221769,18.8629659 L6.49741764,28.2350812 C4.93827228,28.7546409 4.09786993,30.4327561 4.62032645,31.9832564 C5.14278298,33.5337568 6.83025472,34.3694994 8.38940008,33.8499397 L36.5141593,24.4778244 C38.0733047,23.9582647 38.9137071,22.2801495 38.3912505,20.7296492 C37.868794,19.1791488 36.1813223,18.3434062 34.6221769,18.8629659 Z" id="Line"></path>
                    <path d="M30.2189684,5.9355541 L2.09420913,15.3076694 C0.53506377,15.8272291 -0.305338582,17.5053443 0.217117941,19.0558447 C0.739574464,20.606345 2.42704621,21.4420876 3.98619157,20.9225279 L32.1109508,11.5504126 C33.6700962,11.0308529 34.5104986,9.35273772 33.988042,7.80223737 C33.4655855,6.25173701 31.7781138,5.41599445 30.2189684,5.9355541 Z" id="Line-Copy-10"></path>
                </g>
                <use id="Rectangle-14" stroke="#2C2C46" mask="url(#mask-2)" stroke-width="10" xlink:href="#path-1"></use>
            </g>
        </g>
    </g>
</svg>
