<svg width="387px" height="245px" viewBox="1183 1637 387 245" version="1.1" xmlns="http://www.w3.org/2000/svg" xmlns:xlink="http://www.w3.org/1999/xlink">
    <g id="Group-21" stroke="none" stroke-width="1" fill="none" fill-rule="evenodd" transform="translate(1187.000000, 1641.000000)">
        <g id="Group-10" transform="translate(0.000000, 20.000000)">
            <g id="Group-7">
                <polygon id="Path-2" stroke="#FBAD8F" stroke-width="6" stroke-linecap="round" stroke-linejoin="round" points="101.784271 217.881423 246.632115 173.610053 0 75.2267616"></polygon>
                <g id="Group-24" transform="translate(190.000000, 17.000000)" fill-rule="nonzero">
                    <path d="M128.666667,146.5077 C93.3925161,146.5077 64.7354167,120.731151 64.7354167,88.7942145 C64.7354167,56.8572779 93.3925161,31.0807292 128.666667,31.0807292 C133.302028,31.0807292 137.892895,31.5263556 142.381388,32.4115539 C154.635596,34.828268 165.839856,40.4729496 174.606377,48.6457988 C177.546323,51.3866504 180.178959,54.3823003 182.463469,57.5871234 C189.094328,66.8892218 192.597917,77.6593894 192.597917,88.7942145 C192.597917,105.526395 184.655041,121.276903 170.74096,132.259003 C168.330851,134.161253 164.840961,133.74196 162.946074,131.322484 C161.051187,128.903008 161.468858,125.399557 163.878968,123.497307 C175.131402,114.61599 181.495616,102.075103 181.495616,88.7942145 C181.495616,79.9948844 178.721067,71.4890461 173.434791,64.0731963 C171.585003,61.4782213 169.446171,59.0453274 167.05137,56.8127033 C159.804133,50.0562517 150.475714,45.3663548 140.24123,43.3479606 C136.458349,42.6019197 132.584209,42.2261738 128.666667,42.2261738 C99.4526914,42.2261738 75.8377177,63.1444767 75.8377177,88.7942145 C75.8377177,114.443952 99.4526914,135.362255 128.666667,135.362255 C134.44481,135.362255 140.122272,134.544601 145.537693,132.935054 C147.084794,132.475231 148.754631,132.713903 150.112416,133.588923 L167.264279,144.642395 C169.844238,146.305043 170.593083,149.752482 168.936872,152.342467 C167.28066,154.932452 163.846565,155.684208 161.266606,154.02156 L146.199132,144.311367 C140.518252,145.769677 134.631253,146.5077 128.666667,146.5077 Z" id="Combined-Shape" fill="#2C2C46"></path>
                    <path d="M39.7750607,126.573643 C37.1951015,128.236291 33.7610066,127.484536 32.1047949,124.894551 C30.4485833,122.304566 31.1974286,118.857126 33.7773878,117.194478 L50.9292511,106.141006 C52.2870355,105.265986 53.9568729,105.027314 55.5039734,105.487137 C60.9193942,107.096685 66.5968569,107.914339 72.375,107.914339 C101.588975,107.914339 125.203949,86.9960357 125.203949,61.3462978 C125.203949,35.69656 101.588975,14.7782572 72.375,14.7782572 C68.4574577,14.7782572 64.5833173,15.154003 60.8004367,15.900044 C50.5659529,17.9184381 41.2375334,22.608335 33.9902963,29.3647866 C31.5954954,31.5974108 29.4566638,34.0303046 27.6068754,36.6252796 C22.3205996,44.0411294 19.546051,52.5469678 19.546051,61.3462978 C19.546051,74.6271864 25.9102648,87.1680736 37.1626989,96.04939 C39.5728088,97.9516405 39.9904796,101.455092 38.0955926,103.874567 C36.2007056,106.294043 32.7108162,106.713337 30.3007063,104.811086 C16.3866254,93.8289864 8.44375,78.0784781 8.44375,61.3462978 C8.44375,50.2114728 11.9473388,39.4413052 18.5781981,30.1392068 C20.8627076,26.9343837 23.4953434,23.9387338 26.4352892,21.1978821 C35.2018103,13.0250329 46.4060707,7.38035131 58.6602785,4.96363725 C63.1487714,4.07843894 67.7396387,3.6328125 72.375,3.6328125 C107.649151,3.6328125 136.30625,29.4093613 136.30625,61.3462978 C136.30625,93.2832344 107.649151,119.059783 72.375,119.059783 C66.4104134,119.059783 60.5234151,118.32176 54.8425351,116.86345 L39.7750607,126.573643 Z" id="Combined-Shape" fill="#4CFFFA"></path>
                    <path d="M31.733394,123.344477 C29.1534348,125.007124 25.7193399,124.255369 24.0631282,121.665384 C22.4069166,119.075399 23.1557619,115.627959 25.7357211,113.965312 L42.8875844,102.91184 C44.2453688,102.036819 45.9152062,101.798148 47.4623068,102.25797 C52.8777275,103.867518 58.5551903,104.685172 64.3333333,104.685172 C93.5473086,104.685172 117.162282,83.766869 117.162282,58.1171312 C117.162282,32.4673934 93.5473086,11.5490905 64.3333333,11.5490905 C60.415791,11.5490905 56.5416506,11.9248364 52.75877,12.6708773 C42.5242862,14.6892714 33.1958668,19.3791683 25.9486297,26.13562 C23.5538287,28.3682441 21.4149972,30.801138 19.5652087,33.396113 C14.278933,40.8119627 11.5043843,49.3178011 11.5043843,58.1171312 C11.5043843,71.3980198 17.8685982,83.9389069 29.1210323,92.8202233 C31.5311422,94.7224738 31.9488129,98.225925 30.0539259,100.645401 C28.159039,103.064876 24.6691495,103.48417 22.2590396,101.58192 C8.3449587,90.5998197 0.402083333,74.8493114 0.402083333,58.1171312 C0.402083333,46.9823061 3.90567209,36.2121385 10.5365315,26.9100401 C12.8210409,23.705217 15.4536767,20.7095671 18.3936225,17.9687154 C27.1601436,9.79586625 38.364404,4.15118465 50.6186118,1.73447058 C55.1071047,0.849272274 59.697972,0.403645833 64.3333333,0.403645833 C99.6074839,0.403645833 128.264583,26.1801946 128.264583,58.1171312 C128.264583,90.0540678 99.6074839,115.830617 64.3333333,115.830617 C58.3687467,115.830617 52.4817484,115.092593 46.8008684,113.634284 L31.733394,123.344477 Z" id="Combined-Shape" fill="#2C2C46"></path>
                </g>
                <g id="Group-4" transform="translate(50.000000, 0.000000)" stroke="#FEBCFF" stroke-width="7" stroke-linecap="round" stroke-linejoin="round">
                    <path d="M0,11.9468463 L9.78371067,2.42741377 C12.3488753,-0.0684605395 16.459899,-0.030796656 18.9734082,2.51911573 L27.4436172,11.1119989 C29.9537823,13.6585188 34.0268788,13.6551561 36.5330689,11.1126687 L44.9141397,2.61021475 C47.4239402,0.0640647784 51.4952628,0.0662277306 54.009082,2.61645468 L61.7236003,10.4427024 C64.2367978,12.9922986 68.3054764,12.9984054 70.8259206,10.4414575 L79.1332986,2.01376362 C81.6471738,-0.536520109 85.7157082,-0.543887917 88.2364465,2.01335826 L96.9871499,10.8907984" id="Path-2-Copy"></path>
                    <path d="M35.8227915,27.694879 L45.6065022,18.1754464 C48.1716668,15.6795721 52.2826905,15.717236 54.7961997,18.2671484 L63.2664086,26.8600316 C65.7765738,29.4065515 69.8496703,29.4031887 72.3558604,26.8607014 L80.7369312,18.3582474 C83.2467316,15.8120974 87.3180543,15.8142604 89.8318735,18.3644873 L97.5463917,26.1907351 C100.059589,28.7403313 104.128268,28.7464381 106.648712,26.1894902 L114.95609,17.7617963 C117.469965,15.2115125 121.5385,15.2041447 124.059238,17.7613909 L132.809941,26.638831" id="Path-2-Copy-2"></path>
                </g>
            </g>
            <g id="Group-9" transform="translate(33.000000, 65.000000)">
                <g id="Group-5">
                    <ellipse id="Oval-2-Copy" fill="#4CFFA5" cx="52.3586338" cy="60.3300274" rx="52.3586338" ry="52.3300274"></ellipse>
                    <ellipse id="Oval-2-Copy" stroke="#2C2C46" stroke-width="8" cx="61.5286993" cy="52.5" rx="52.5286993" ry="52.5"></ellipse>
                    <g id="Group" transform="translate(32.000000, 23.000000)" stroke="#2C2C46" stroke-width="10" stroke-linecap="round">
                        <path d="M29.25,0 L29.25,60" id="Line"></path>
                        <path d="M0,30 L60,30" id="Line"></path>
                    </g>
                </g>
            </g>
        </g>
        <ellipse id="Oval-3" stroke="#4CFFFA" stroke-width="6" cx="347.572081" cy="20.560841" rx="20.5720806" ry="20.560841"></ellipse>
    </g>
</svg>
