<svg width="129px" height="128px" viewBox="542 130 129 128" version="1.1" xmlns="http://www.w3.org/2000/svg" xmlns:xlink="http://www.w3.org/1999/xlink">
    <g id="Group-13" stroke="none" stroke-width="1" fill="none" fill-rule="evenodd" transform="translate(542.000000, 130.000000)">
        <g id="Group-12-Copy" transform="translate(7.938462, 0.000000)">
            <path d="M70.9431765,56.4286163 L56.3998071,120.407744 L114.369163,73.5423083 L70.9431765,56.4286163 Z M119.520904,74.4933263 L54.4383104,127.109472 C52.9723459,128.294634 50.8398543,126.956815 51.2585981,125.114679 L67.5865387,53.2848739 C67.8566183,52.0967407 69.1166059,51.4283017 70.2466637,51.8736447 L119.001317,71.0873041 C120.419387,71.6461496 120.707394,73.5341063 119.520904,74.4933263 Z" id="Path-2" fill="#FBAD8F" fill-rule="nonzero"></path>
            <path d="M42.4211538,52.2957198 C28.0351982,52.2957198 16.3730769,40.5889242 16.3730769,26.1478599 C16.3730769,11.7067956 28.0351982,0 42.4211538,0 C46.9837828,0 51.3799214,1.18079419 55.2638124,3.3941655 C63.3589171,8.00744443 68.4692308,16.6302212 68.4692308,26.1478599 C68.4692308,40.5889242 56.8071095,52.2957198 42.4211538,52.2957198 Z M42.4211538,48.311284 C54.6149639,48.311284 64.5,38.3883811 64.5,26.1478599 C64.5,18.0786761 60.1694001,10.7715324 53.3042056,6.85916089 C50.0138801,4.98405364 46.2922674,3.9844358 42.4211538,3.9844358 C30.2273438,3.9844358 20.3423077,13.9073388 20.3423077,26.1478599 C20.3423077,38.3883811 30.2273438,48.311284 42.4211538,48.311284 Z" id="Oval" fill="#4CFFFA" fill-rule="nonzero"></path>
            <ellipse id="Oval-2-Copy" fill="#4CFFA5" cx="84.3461538" cy="100.596664" rx="18.8538462" ry="18.9157297"></ellipse>
            <g id="emoji" transform="translate(66.980769, 76.202335)" fill-rule="nonzero" fill="#2C2C46">
                <path d="M21.0865385,42.3346304 C9.44076484,42.3346304 0,32.8577005 0,21.1673152 C0,9.47692981 9.44076484,0 21.0865385,0 C32.7323121,0 42.1730769,9.47692981 42.1730769,21.1673152 C42.1730769,32.8577005 32.7323121,42.3346304 21.0865385,42.3346304 Z M21.0865385,37.7987771 C30.2367892,37.7987771 37.654533,30.352618 37.654533,21.1673152 C37.654533,11.9820124 30.2367892,4.53585325 21.0865385,4.53585325 C11.9362878,4.53585325 4.51854396,11.9820124 4.51854396,21.1673152 C4.51854396,30.352618 11.9362878,37.7987771 21.0865385,37.7987771 Z" id="Oval-8"></path>
                <path d="M21.0865385,35.5308505 C13.5999697,35.5308505 7.53090659,29.4385385 7.53090659,21.9232907 C7.53090659,20.8063292 8.69589922,20.0749683 9.69634861,20.5638661 C9.7989192,20.6126079 9.8599284,20.6409555 9.93078046,20.6732711 C10.1374464,20.7675314 10.3790606,20.8733887 10.652601,20.9879658 C11.4400944,21.3178209 12.319916,21.6485514 13.2674878,21.9572566 C15.9535959,22.8323517 18.6298983,23.355492 21.0865385,23.355492 C23.5431787,23.355492 26.2194811,22.8323517 28.9055892,21.9572566 C29.8531609,21.6485514 30.7329825,21.3178209 31.5204759,20.9879658 C31.7940164,20.8733887 32.0356305,20.7675314 32.2422965,20.6732711 C32.3131485,20.6409555 32.3741577,20.6126079 32.4249484,20.5885883 C33.4771777,20.0749683 34.6421703,20.8063292 34.6421703,21.9232907 C34.6421703,29.4385385 28.5731072,35.5308505 21.0865385,35.5308505 Z M21.0865385,32.5069483 C26.0953843,32.5069483 30.288439,29.0007514 31.3629257,24.2999559 C30.8752679,24.4820464 30.3650989,24.6609359 29.8354823,24.8334773 C26.8734104,25.7984774 23.9015329,26.3793942 21.0865385,26.3793942 C18.271544,26.3793942 15.2996665,25.7984774 12.3375947,24.8334773 C11.8079781,24.6609359 11.297809,24.4820464 10.8101512,24.2999559 C11.8846379,29.0007514 16.0776927,32.5069483 21.0865385,32.5069483 Z" id="Oval-8"></path>
                <path d="M14.3087225,11.3396331 L14.3087225,15.1195108 C14.3087225,15.9545384 14.9830629,16.6314619 15.8149038,16.6314619 C16.6467448,16.6314619 17.3210852,15.9545384 17.3210852,15.1195108 L17.3210852,11.3396331 C17.3210852,10.5046056 16.6467448,9.82768205 15.8149038,9.82768205 C14.9830629,9.82768205 14.3087225,10.5046056 14.3087225,11.3396331 Z" id="Line"></path>
                <path d="M24.0989011,11.3396331 L24.0989011,15.1195108 C24.0989011,15.9545384 24.7732414,16.6314619 25.6050824,16.6314619 C26.4369234,16.6314619 27.1112637,15.9545384 27.1112637,15.1195108 L27.1112637,11.3396331 C27.1112637,10.5046056 26.4369234,9.82768205 25.6050824,9.82768205 C24.7732414,9.82768205 24.0989011,10.5046056 24.0989011,11.3396331 Z" id="Line-Copy-2"></path>
            </g>
            <g id="emoji" transform="translate(0.000000, 25.898833)">
                <ellipse id="Oval-2-Copy" fill="#FFFFFF" cx="16.6211538" cy="16.6757091" rx="16.6211538" ry="16.6757091"></ellipse>
                <path d="M18.8538462,33.8677043 C9.53722726,33.8677043 1.98461538,26.2861604 1.98461538,16.9338521 C1.98461538,7.58154385 9.53722726,0 18.8538462,0 C28.170465,0 35.7230769,7.58154385 35.7230769,16.9338521 C35.7230769,26.2861604 28.170465,33.8677043 18.8538462,33.8677043 Z M18.8538462,30.2390217 C26.1740467,30.2390217 32.1082418,24.2820944 32.1082418,16.9338521 C32.1082418,9.58560991 26.1740467,3.6286826 18.8538462,3.6286826 C11.5336456,3.6286826 5.59945055,9.58560991 5.59945055,16.9338521 C5.59945055,24.2820944 11.5336456,30.2390217 18.8538462,30.2390217 Z" id="Oval-8" fill="#2C2C46" fill-rule="nonzero"></path>
                <path d="M18.8538462,28.4246804 C12.8645912,28.4246804 8.00934066,23.5508308 8.00934066,17.5386326 C8.00934066,16.6450633 8.94133476,16.0599746 9.74169427,16.4510929 C9.82375075,16.4900863 9.87255811,16.5127644 9.92923975,16.5386169 C10.0945725,16.6140251 10.2878638,16.698711 10.5066962,16.7903726 C11.1366909,17.0542567 11.8405482,17.3188411 12.5986056,17.5658052 C14.7474921,18.2658813 16.888534,18.6843936 18.8538462,18.6843936 C20.8191583,18.6843936 22.9602002,18.2658813 25.1090867,17.5658052 C25.8671441,17.3188411 26.5710014,17.0542567 27.2009961,16.7903726 C27.4198285,16.698711 27.6131198,16.6140251 27.7784526,16.5386169 C27.8351342,16.5127644 27.8839416,16.4900863 27.9245741,16.4708706 C28.7663575,16.0599746 29.6983516,16.6450633 29.6983516,17.5386326 C29.6983516,23.5508308 24.8431012,28.4246804 18.8538462,28.4246804 Z M18.8538462,26.0055586 C22.8609228,26.0055586 26.2153666,23.2006011 27.074956,19.4399647 C26.6848297,19.5856371 26.2766945,19.7287487 25.8530012,19.8667818 C23.4833437,20.6387819 21.1058417,21.1035154 18.8538462,21.1035154 C16.6018506,21.1035154 14.2243486,20.6387819 11.8546911,19.8667818 C11.4309978,19.7287487 11.0228626,19.5856371 10.6327363,19.4399647 C11.4923257,23.2006011 14.8467695,26.0055586 18.8538462,26.0055586 Z" id="Oval-8" fill="#2C2C46" fill-rule="nonzero"></path>
                <path d="M13.4315934,9.0717065 L13.4315934,12.0956087 C13.4315934,12.7636307 13.9710657,13.3051695 14.6365385,13.3051695 C15.3020112,13.3051695 15.8414835,12.7636307 15.8414835,12.0956087 L15.8414835,9.0717065 C15.8414835,8.40368448 15.3020112,7.86214564 14.6365385,7.86214564 C13.9710657,7.86214564 13.4315934,8.40368448 13.4315934,9.0717065 Z" id="Line" fill="#2C2C46" fill-rule="nonzero"></path>
                <path d="M21.2637363,9.0717065 L21.2637363,12.0956087 C21.2637363,12.7636307 21.8032085,13.3051695 22.4686813,13.3051695 C23.1341541,13.3051695 23.6736264,12.7636307 23.6736264,12.0956087 L23.6736264,9.0717065 C23.6736264,8.40368448 23.1341541,7.86214564 22.4686813,7.86214564 C21.8032085,7.86214564 21.2637363,8.40368448 21.2637363,9.0717065 Z" id="Line-Copy-2" fill="#2C2C46" fill-rule="nonzero"></path>
            </g>
        </g>
        <path d="M1.45498286,59.479786 L54.0472906,91.3552724 C54.9855995,91.9239687 56.2055094,91.6214247 56.7720356,90.6795213 C57.3385618,89.737618 57.0371723,88.5130349 56.0988633,87.9443385 L3.5065556,56.0688522 C2.56824663,55.5001558 1.34833673,55.8026998 0.781810562,56.7446032 C0.215284396,57.6865066 0.516673902,58.9110896 1.45498286,59.479786 Z" id="Line" fill="#4CFFA5" fill-rule="nonzero"></path>
        <g id="Group-4" transform="translate(53.584615, 23.906615)" fill-rule="nonzero" fill="#FEBCFF">
            <path d="M2.34680231,7.05356261 L6.3045949,3.24519514 C6.84348519,2.72665048 7.71476104,2.73609956 8.24664745,3.26973176 L11.6776273,6.711973 C13.1685548,8.20779414 15.5835518,8.2085643 17.0750149,6.71220583 L20.4700137,3.30606364 C20.9909767,2.78339068 21.8388039,2.78336701 22.3580535,3.30432091 L25.4929341,6.44949104 C26.9823235,7.94376905 29.393689,7.94731779 30.8822068,6.45391434 L34.2657522,3.05926321 C34.7851813,2.53812916 35.6241977,2.53851998 36.1473978,3.06343736 L39.7009124,6.62861564 C40.1854451,7.11473868 40.9708132,7.11452326 41.4550811,6.62813448 C41.9393491,6.1417457 41.9391345,5.3533691 41.4546018,4.86724606 L37.9010871,1.30206778 C36.4095604,-0.194354516 34.0005475,-0.195476655 32.5120628,1.29789363 L29.1285174,4.69254476 C28.6098439,5.21292069 27.7684716,5.21168246 27.2466235,4.68812146 L24.1117429,1.54295133 C22.6237806,0.0501051239 20.2059564,0.0501726215 18.7163244,1.54469406 L15.3213255,4.95083624 C14.7988029,5.4750739 13.9538027,5.47480442 13.4313166,4.95060342 L10.0003368,1.50836218 C8.51431648,0.0174643358 6.101217,-0.00870598808 4.58791336,1.44746339 L0.630120766,5.25583086 C0.135585279,5.73169532 0.118977309,6.51989566 0.593025827,7.01632557 C1.06707435,7.51275549 1.85226682,7.52942708 2.34680231,7.05356261 Z" id="Path-2-Copy"></path>
            <path d="M16.7795129,13.3282651 L20.7373055,9.51989765 C21.2761957,9.00135298 22.1474716,9.01080206 22.679358,9.54443427 L26.1103378,12.9866755 C27.6012653,14.4824966 30.0162623,14.4832668 31.5077254,12.9869083 L34.9027243,9.58076614 C35.4236873,9.05809318 36.2715145,9.05806951 36.7907641,9.57902342 L39.9256447,12.7241935 C41.4150341,14.2184716 43.8263996,14.2220203 45.3149173,12.7286168 L48.6984627,9.33396572 C49.2178918,8.81283167 50.0569082,8.81322249 50.5801083,9.33813987 L54.133623,12.9033181 C54.6181557,13.3894412 55.4035237,13.3892258 55.8877917,12.902837 C56.3720596,12.4164482 56.371845,11.6280716 55.8873123,11.1419486 L52.3337977,7.57677028 C50.842271,6.08034799 48.433258,6.07922585 46.9447734,7.57259613 L43.561228,10.9672473 C43.0425545,11.4876232 42.2011822,11.486385 41.679334,10.962824 L38.5444534,7.81765384 C37.0564911,6.32480763 34.638667,6.32487513 33.1490349,7.81939656 L29.7540361,11.2255387 C29.2315135,11.7497764 28.3865132,11.7495069 27.8640272,11.2253059 L24.4330474,7.78306468 C22.947027,6.29216684 20.5339276,6.26599652 19.0206239,7.72216589 L15.0628313,11.5305334 C14.5682958,12.0063978 14.5516879,12.7945982 15.0257364,13.2910281 C15.4997849,13.787458 16.2849774,13.8041296 16.7795129,13.3282651 Z" id="Path-2-Copy-2"></path>
        </g>
    </g>
</svg>
