<svg width="427px" height="421px" viewBox="187 190 427 421" version="1.1" xmlns="http://www.w3.org/2000/svg">
    <g id="Group-14" stroke="none" stroke-width="1" fill="none" fill-rule="evenodd" transform="translate(187.000000, 190.000000)">
        <ellipse id="Oval-2-Copy" fill="#4CFFA5" cx="183.819021" cy="237.014476" rx="183.819021" ry="183.784591"></ellipse>
        <g id="emoji" transform="translate(14.512028, 0.000000)" fill-rule="nonzero" fill="#2C2C46">
            <path d="M205.587063,411.321839 C92.0444633,411.321839 0,319.244309 0,205.66092 C0,92.07753 92.0444633,0 205.587063,0 C319.129663,0 411.174126,92.07753 411.174126,205.66092 C411.174126,319.244309 319.129663,411.321839 205.587063,411.321839 Z M205.587063,367.251642 C294.799105,367.251642 367.119755,294.905011 367.119755,205.66092 C367.119755,116.416828 294.799105,44.070197 205.587063,44.070197 C116.37502,44.070197 44.0543706,116.416828 44.0543706,205.66092 C44.0543706,294.905011 116.37502,367.251642 205.587063,367.251642 Z" id="Oval-8"></path>
            <path d="M205.587063,345.216544 C132.595392,345.216544 73.423951,286.023846 73.423951,213.005952 C73.423951,202.153592 84.7822597,195.047714 94.536324,199.797829 C95.5363548,200.271402 96.1311751,200.546827 96.8219602,200.860804 C98.8368875,201.776634 101.192549,202.80514 103.859482,203.918367 C111.537292,207.123228 120.115274,210.336594 129.353798,213.335963 C155.5425,221.838358 181.6356,226.921172 205.587063,226.921172 C229.538526,226.921172 255.631626,221.838358 281.820328,213.335963 C291.058852,210.336594 299.636833,207.123228 307.314644,203.918367 C309.981577,202.80514 312.337238,201.776634 314.352166,200.860804 C315.042951,200.546827 315.637771,200.271402 316.132964,200.038028 C326.391866,195.047714 337.750175,202.153592 337.750175,213.005952 C337.750175,286.023846 278.578734,345.216544 205.587063,345.216544 Z M205.587063,315.836412 C254.421721,315.836412 295.302675,281.770322 305.77858,236.097551 C301.024071,237.866736 296.050084,239.60482 290.88649,241.281227 C262.007229,250.657135 233.032366,256.301303 205.587063,256.301303 C178.14176,256.301303 149.166897,250.657135 120.287635,241.281227 C115.124042,239.60482 110.150055,237.866736 105.395546,236.097551 C115.871451,281.770322 156.752405,315.836412 205.587063,315.836412 Z" id="Oval-8"></path>
            <path d="M139.505507,110.175493 L139.505507,146.900657 C139.505507,155.013756 146.080112,161.590722 154.190297,161.590722 C162.300483,161.590722 168.875087,155.013756 168.875087,146.900657 L168.875087,110.175493 C168.875087,102.062393 162.300483,95.4854269 154.190297,95.4854269 C146.080112,95.4854269 139.505507,102.062393 139.505507,110.175493 Z" id="Line"></path>
            <path d="M234.956643,110.175493 L234.956643,146.900657 C234.956643,155.013756 241.531248,161.590722 249.641434,161.590722 C257.751619,161.590722 264.326224,155.013756 264.326224,146.900657 L264.326224,110.175493 C264.326224,102.062393 257.751619,95.4854269 249.641434,95.4854269 C241.531248,95.4854269 234.956643,102.062393 234.956643,110.175493 Z" id="Line-Copy-2"></path>
        </g>
    </g>
</svg>
