<svg width="172px" height="147px" viewBox="763 130 172 147" version="1.1" xmlns="http://www.w3.org/2000/svg" xmlns:xlink="http://www.w3.org/1999/xlink">
    <g id="Group-13-Copy" stroke="none" stroke-width="1" fill="none" fill-rule="evenodd" transform="translate(764.000000, 130.000000)">
        <g id="Group-12-Copy">
            <path d="M38.2551451,141.529609 L156.034581,93.1772951 L122.145391,20.6147774 L38.2551451,141.529609 Z M123.945287,16.5660602 L159.806428,93.3508599 C160.209812,94.2145722 159.809136,95.2398006 158.926605,95.6021087 L34.2937959,146.767957 C32.7528003,147.400586 31.3344941,145.639248 32.2834822,144.271428 L121.05515,16.3207801 C121.790431,15.2609857 123.399552,15.3975485 123.945287,16.5660602 Z" id="Path-2" fill="#FBAD8F" fill-rule="nonzero"></path>
            <path d="M67.3129584,96.46875 C47.224107,96.46875 30.9388753,80.2021865 30.9388753,60.1363636 C30.9388753,40.0705407 47.224107,23.8039773 67.3129584,23.8039773 C73.6854312,23.8039773 79.8229017,25.4443163 85.245929,28.5194955 C96.5511914,34.930252 103.687042,46.911076 103.687042,60.1363636 C103.687042,80.2021865 87.4018098,96.46875 67.3129584,96.46875 Z M67.3129584,93.1278409 C85.5545591,93.1278409 100.342298,78.3570534 100.342298,60.1363636 C100.342298,48.1255907 93.8634879,37.2479118 83.5946313,31.4248591 C78.6717825,28.6333109 73.1027134,27.1448864 67.3129584,27.1448864 C49.0713577,27.1448864 34.2836186,41.9156739 34.2836186,60.1363636 C34.2836186,78.3570534 49.0713577,93.1278409 67.3129584,93.1278409 Z" id="Oval" fill="#4CFFFA" fill-rule="nonzero"></path>
            <path d="M45.99022,14.1988636 C42.0648123,14.1988636 38.8826406,11.0203397 38.8826406,7.09943182 C38.8826406,3.17852389 42.0648123,0 45.99022,0 C47.2340426,0 48.4350204,0.320980924 49.4953289,0.922238918 C51.7030713,2.17416019 53.0977995,4.51585646 53.0977995,7.09943182 C53.0977995,11.0203397 49.9156278,14.1988636 45.99022,14.1988636 Z M45.99022,10.8579545 C48.0683771,10.8579545 49.7530562,9.1752066 49.7530562,7.09943182 C49.7530562,5.73037118 49.0153678,4.49182001 47.8440312,3.82760248 C47.2839013,3.50997548 46.6513248,3.34090909 45.99022,3.34090909 C43.912063,3.34090909 42.2273839,5.02365703 42.2273839,7.09943182 C42.2273839,9.1752066 43.912063,10.8579545 45.99022,10.8579545 Z" id="Oval" fill="#4CFFFA" fill-rule="nonzero"></path>
            <path d="M16.3056235,130.713068 C12.3802157,130.713068 9.19804401,127.534544 9.19804401,123.613636 C9.19804401,119.692728 12.3802157,116.514205 16.3056235,116.514205 C17.549446,116.514205 18.7504239,116.835185 19.8107323,117.436443 C22.0184747,118.688365 23.4132029,121.030061 23.4132029,123.613636 C23.4132029,127.534544 20.2310312,130.713068 16.3056235,130.713068 Z M16.3056235,127.372159 C18.3837805,127.372159 20.0684597,125.689411 20.0684597,123.613636 C20.0684597,122.244576 19.3307712,121.006025 18.1594346,120.341807 C17.5993047,120.02418 16.9667282,119.855114 16.3056235,119.855114 C14.2274664,119.855114 12.5427873,121.537862 12.5427873,123.613636 C12.5427873,125.689411 14.2274664,127.372159 16.3056235,127.372159 Z" id="Oval" fill="#4CFFFA" fill-rule="nonzero"></path>
            <path d="M163.892421,78.9289773 C159.967013,78.9289773 156.784841,75.7504534 156.784841,71.8295455 C156.784841,67.9086375 159.967013,64.7301136 163.892421,64.7301136 C165.136243,64.7301136 166.337221,65.0510946 167.397529,65.6523526 C169.605272,66.9042738 171,69.2459701 171,71.8295455 C171,75.7504534 167.817828,78.9289773 163.892421,78.9289773 Z M163.892421,75.5880682 C165.970578,75.5880682 167.655257,73.9053202 167.655257,71.8295455 C167.655257,70.4604848 166.917568,69.2219336 165.746232,68.5577161 C165.186102,68.2400891 164.553525,68.0710227 163.892421,68.0710227 C161.814263,68.0710227 160.129584,69.7537707 160.129584,71.8295455 C160.129584,73.9053202 161.814263,75.5880682 163.892421,75.5880682 Z" id="Oval" fill="#4CFFFA" fill-rule="nonzero"></path>
            <path d="M163.056235,77.6761364 C159.130827,77.6761364 155.948655,74.4976125 155.948655,70.5767045 C155.948655,66.6557966 159.130827,63.4772727 163.056235,63.4772727 C164.300057,63.4772727 165.501035,63.7982537 166.561344,64.3995116 C168.769086,65.6514329 170.163814,67.9931292 170.163814,70.5767045 C170.163814,74.4976125 166.981642,77.6761364 163.056235,77.6761364 Z M163.056235,74.3352273 C165.134392,74.3352273 166.819071,72.6524793 166.819071,70.5767045 C166.819071,69.2076439 166.081382,67.9690927 164.910046,67.3048752 C164.349916,66.9872482 163.717339,66.8181818 163.056235,66.8181818 C160.978078,66.8181818 159.293399,68.5009298 159.293399,70.5767045 C159.293399,72.6524793 160.978078,74.3352273 163.056235,74.3352273 Z" id="Oval" fill="#2C2C46" fill-rule="nonzero"></path>
            <path d="M66.0586797,94.7982955 C45.9698283,94.7982955 29.6845966,78.531732 29.6845966,58.4659091 C29.6845966,38.4000862 45.9698283,22.1335227 66.0586797,22.1335227 C72.4311525,22.1335227 78.5686229,23.7738618 83.9916502,26.8490409 C95.2969127,33.2597974 102.432763,45.2406214 102.432763,58.4659091 C102.432763,78.531732 86.1475311,94.7982955 66.0586797,94.7982955 Z M66.0586797,91.4573864 C84.3002804,91.4573864 99.0880196,76.6865989 99.0880196,58.4659091 C99.0880196,46.4551362 92.6092092,35.5774572 82.3403525,29.7544045 C77.4175038,26.9628563 71.8484347,25.4744318 66.0586797,25.4744318 C47.817079,25.4744318 33.0293399,40.2452193 33.0293399,58.4659091 C33.0293399,76.6865989 47.817079,91.4573864 66.0586797,91.4573864 Z" id="Oval" fill="#2C2C46" fill-rule="nonzero"></path>
            <path d="M105.150367,73.5 C92.1041587,73.5 81.5281174,62.9360824 81.5281174,49.9048295 C81.5281174,36.8735767 92.1041587,26.3096591 105.150367,26.3096591 C109.288213,26.3096591 113.274783,27.375135 116.796912,29.3723913 C124.138255,33.5353696 128.772616,41.316288 128.772616,49.9048295 C128.772616,62.9360824 118.196575,73.5 105.150367,73.5 Z M105.150367,70.1590909 C116.349324,70.1590909 125.427873,61.0909492 125.427873,49.9048295 C125.427873,42.5308027 121.450551,35.8530294 115.145614,32.2777549 C112.123664,30.5641295 108.705496,29.6505682 105.150367,29.6505682 C93.9514094,29.6505682 84.8728606,38.7187099 84.8728606,49.9048295 C84.8728606,61.0909492 93.9514094,70.1590909 105.150367,70.1590909 Z" id="Oval-Copy" fill="#4CFFFA" fill-rule="nonzero"></path>
            <ellipse id="Oval-2-Copy" fill="#4CFFA5" cx="70.2396088" cy="129.033943" rx="15.8875306" ry="15.8606479"></ellipse>
            <g id="emoji" transform="translate(55.606357, 108.579545)" fill-rule="nonzero" fill="#2C2C46">
                <path d="M17.7689487,35.4971591 C7.95542929,35.4971591 0,27.5508494 0,17.7485795 C0,7.94630973 7.95542929,0 17.7689487,0 C27.582468,0 35.5378973,7.94630973 35.5378973,17.7485795 C35.5378973,27.5508494 27.582468,35.4971591 17.7689487,35.4971591 Z M17.7689487,31.693892 C25.479571,31.693892 31.7302655,25.450363 31.7302655,17.7485795 C31.7302655,10.0467961 25.479571,3.80326705 17.7689487,3.80326705 C10.0583263,3.80326705 3.80763185,10.0467961 3.80763185,17.7485795 C3.80763185,25.450363 10.0583263,31.693892 17.7689487,31.693892 Z" id="Oval-8"></path>
                <path d="M17.7689487,29.7922585 C11.4602576,29.7922585 6.34605309,24.6839166 6.34605309,18.3824574 C6.34605309,17.4458964 7.32775496,16.8326577 8.17080152,17.2425936 C8.25723447,17.2834631 8.30864496,17.3072323 8.36834971,17.3343286 C8.54250046,17.4133649 8.74610097,17.5021252 8.97660469,17.5981969 C9.64020009,17.874777 10.3815975,18.1520912 11.1800858,18.4109374 C13.4435828,19.1446958 15.6988169,19.5833437 17.7689487,19.5833437 C19.8390804,19.5833437 22.0943145,19.1446958 24.3578115,18.4109374 C25.1562998,18.1520912 25.8976972,17.874777 26.5612926,17.5981969 C26.7917963,17.5021252 26.9953968,17.4133649 27.1695476,17.3343286 C27.2292524,17.3072323 27.2806628,17.2834631 27.3234625,17.2633229 C28.2101423,16.8326577 29.1918442,17.4458964 29.1918442,18.3824574 C29.1918442,24.6839166 24.0776397,29.7922585 17.7689487,29.7922585 Z M17.7689487,27.2567472 C21.9897421,27.2567472 25.5230947,24.3168366 26.4285301,20.3752671 C26.0175966,20.5279481 25.5876935,20.6779451 25.1414026,20.8226194 C22.6453598,21.6317622 20.141054,22.118855 17.7689487,22.118855 C15.3968433,22.118855 12.8925375,21.6317622 10.3964947,20.8226194 C9.95020384,20.6779451 9.52030073,20.5279481 9.1093672,20.3752671 C10.0148026,24.3168366 13.5481552,27.2567472 17.7689487,27.2567472 Z" id="Oval-8"></path>
                <path d="M12.0575009,9.50816761 L12.0575009,12.6775568 C12.0575009,13.3777189 12.6257458,13.9453125 13.3267115,13.9453125 C14.0276772,13.9453125 14.5959221,13.3777189 14.5959221,12.6775568 L14.5959221,9.50816761 C14.5959221,8.80800548 14.0276772,8.24041193 13.3267115,8.24041193 C12.6257458,8.24041193 12.0575009,8.80800548 12.0575009,9.50816761 Z" id="Line"></path>
                <path d="M20.3073699,9.50816761 L20.3073699,12.6775568 C20.3073699,13.3777189 20.8756148,13.9453125 21.5765805,13.9453125 C22.2775462,13.9453125 22.8457911,13.3777189 22.8457911,12.6775568 L22.8457911,9.50816761 C22.8457911,8.80800548 22.2775462,8.24041193 21.5765805,8.24041193 C20.8756148,8.24041193 20.3073699,8.80800548 20.3073699,9.50816761 Z" id="Line-Copy-2"></path>
            </g>
            <g id="emoji" transform="translate(0.000000, 12.528409)">
                <ellipse id="Oval-2-Copy" fill="#FFFFFF" cx="15.2603912" cy="13.9824133" rx="14.0061125" ry="13.9824133"></ellipse>
                <ellipse id="Oval-2-Copy" fill="#4CFFA5" cx="13.3789731" cy="15.8620169" rx="13.3789731" ry="13.3563351"></ellipse>
                <path d="M17.1418093,28.3977273 C9.2909938,28.3977273 2.92665037,22.0406795 2.92665037,14.1988636 C2.92665037,6.35704779 9.2909938,0 17.1418093,0 C24.9926248,0 31.3569682,6.35704779 31.3569682,14.1988636 C31.3569682,22.0406795 24.9926248,28.3977273 17.1418093,28.3977273 Z M17.1418093,25.3551136 C23.3103072,25.3551136 28.3108627,20.3602904 28.3108627,14.1988636 C28.3108627,8.0374369 23.3103072,3.04261364 17.1418093,3.04261364 C10.9733114,3.04261364 5.97275585,8.0374369 5.97275585,14.1988636 C5.97275585,20.3602904 10.9733114,25.3551136 17.1418093,25.3551136 Z" id="Oval-8" fill="#2C2C46" fill-rule="nonzero"></path>
                <path d="M17.1418093,23.8338068 C12.0948565,23.8338068 8.00349284,19.7471332 8.00349284,14.7059659 C8.00349284,13.9567171 8.78885434,13.4661262 9.46329159,13.7940749 C9.53243794,13.8267705 9.57356634,13.8457858 9.62133014,13.8674629 C9.76065074,13.9306919 9.92353114,14.0017001 10.1079341,14.0785575 C10.6388104,14.2998216 11.2319284,14.521673 11.870719,14.7287499 C13.6815166,15.3157566 15.4857039,15.6666749 17.1418093,15.6666749 C18.7979147,15.6666749 20.602102,15.3157566 22.4128996,14.7287499 C23.0516902,14.521673 23.6448081,14.2998216 24.1756845,14.0785575 C24.3600874,14.0017001 24.5229678,13.9306919 24.6622884,13.8674629 C24.7100522,13.8457858 24.7511806,13.8267705 24.7854204,13.8106583 C25.4947642,13.4661262 26.2801257,13.9567171 26.2801257,14.7059659 C26.2801257,19.7471332 22.1887621,23.8338068 17.1418093,23.8338068 Z M17.1418093,21.8053977 C20.5184441,21.8053977 23.3451261,19.4534693 24.0694745,16.3002137 C23.7407276,16.4223585 23.3968051,16.5423561 23.0397724,16.6580955 C21.0429382,17.3054098 19.0394936,17.695084 17.1418093,17.695084 C15.244125,17.695084 13.2406804,17.3054098 11.2438462,16.6580955 C10.8868134,16.5423561 10.542891,16.4223585 10.2141441,16.3002137 C10.9384925,19.4534693 13.7651745,21.8053977 17.1418093,21.8053977 Z" id="Oval-8" fill="#2C2C46" fill-rule="nonzero"></path>
                <path d="M12.5726511,7.60653409 L12.5726511,10.1420455 C12.5726511,10.7021752 13.027247,11.15625 13.5880196,11.15625 C14.1487921,11.15625 14.6033881,10.7021752 14.6033881,10.1420455 L14.6033881,7.60653409 C14.6033881,7.04640439 14.1487921,6.59232955 13.5880196,6.59232955 C13.027247,6.59232955 12.5726511,7.04640439 12.5726511,7.60653409 Z" id="Line" fill="#2C2C46" fill-rule="nonzero"></path>
                <path d="M19.1725463,7.60653409 L19.1725463,10.1420455 C19.1725463,10.7021752 19.6271422,11.15625 20.1879148,11.15625 C20.7486873,11.15625 21.2032833,10.7021752 21.2032833,10.1420455 L21.2032833,7.60653409 C21.2032833,7.04640439 20.7486873,6.59232955 20.1879148,6.59232955 C19.6271422,6.59232955 19.1725463,7.04640439 19.1725463,7.60653409 Z" id="Line-Copy-2" fill="#2C2C46" fill-rule="nonzero"></path>
            </g>
            <g id="emoji-copy-3" transform="translate(114.975550, 98.139205)">
                <ellipse id="Oval-2-Copy" fill="#FFFFFF" cx="10.310055" cy="10.2811862" rx="10.310055" ry="10.2811862"></ellipse>
                <path d="M11.6949878,20.8806818 C5.91591526,20.8806818 1.23105134,16.206382 1.23105134,10.4403409 C1.23105134,4.67429984 5.91591526,0 11.6949878,0 C17.4740603,0 22.1589242,4.67429984 22.1589242,10.4403409 C22.1589242,16.206382 17.4740603,20.8806818 11.6949878,20.8806818 Z M11.6949878,18.6434659 C16.2356876,18.6434659 19.9166521,14.9708017 19.9166521,10.4403409 C19.9166521,5.90988007 16.2356876,2.23721591 11.6949878,2.23721591 C7.15428794,2.23721591 3.47332344,5.90988007 3.47332344,10.4403409 C3.47332344,14.9708017 7.15428794,18.6434659 11.6949878,18.6434659 Z" id="Oval-8" fill="#2C2C46" fill-rule="nonzero"></path>
                <path d="M11.6949878,17.524858 C7.97986973,17.524858 4.9681715,14.5199509 4.9681715,10.8132102 C4.9681715,10.262292 5.54628482,9.90156336 6.04274558,10.1427021 C6.09364498,10.166743 6.12392004,10.1807249 6.15907951,10.1966639 C6.26163495,10.2431558 6.38153302,10.2953677 6.51727411,10.3518805 C6.90805807,10.5145747 7.34465875,10.6777007 7.81487963,10.8299632 C9.14782788,11.2615858 10.4759102,11.5196139 11.6949878,11.5196139 C12.9140654,11.5196139 14.2421477,11.2615858 15.5750959,10.8299632 C16.0453168,10.6777007 16.4819175,10.5145747 16.8727014,10.3518805 C17.0084425,10.2953677 17.1283406,10.2431558 17.230896,10.1966639 C17.2660555,10.1807249 17.2963306,10.166743 17.3215348,10.1548958 C17.8436907,9.90156336 18.4218041,10.262292 18.4218041,10.8132102 C18.4218041,14.5199509 15.4101058,17.524858 11.6949878,17.524858 Z M11.6949878,16.0333807 C14.1805662,16.0333807 16.2613182,14.3040215 16.7945191,11.9854512 C16.5525249,12.0752636 16.2993597,12.1634971 16.036544,12.2485996 C14.5666521,12.724566 13.0918943,13.0110912 11.6949878,13.0110912 C10.2980813,13.0110912 8.82332345,12.724566 7.35343158,12.2485996 C7.09061583,12.1634971 6.83745066,12.0752636 6.59545647,11.9854512 C7.12865735,14.3040215 9.20940939,16.0333807 11.6949878,16.0333807 Z" id="Oval-8" fill="#2C2C46" fill-rule="nonzero"></path>
                <path d="M8.33157964,5.59303977 L8.33157964,7.45738636 C8.33157964,7.86924644 8.66621277,8.203125 9.07900367,8.203125 C9.49179456,8.203125 9.8264277,7.86924644 9.8264277,7.45738636 L9.8264277,5.59303977 C9.8264277,5.1811797 9.49179456,4.84730114 9.07900367,4.84730114 C8.66621277,4.84730114 8.33157964,5.1811797 8.33157964,5.59303977 Z" id="Line" fill="#2C2C46" fill-rule="nonzero"></path>
                <path d="M13.1898358,5.59303977 L13.1898358,7.45738636 C13.1898358,7.86924644 13.524469,8.203125 13.9372599,8.203125 C14.3500508,8.203125 14.6846839,7.86924644 14.6846839,7.45738636 L14.6846839,5.59303977 C14.6846839,5.1811797 14.3500508,4.84730114 13.9372599,4.84730114 C13.524469,4.84730114 13.1898358,5.1811797 13.1898358,5.59303977 Z" id="Line-Copy-2" fill="#2C2C46" fill-rule="nonzero"></path>
            </g>
            <g id="emoji-copy" transform="translate(16.305623, 90.204545)">
                <ellipse id="Oval-2-Copy" fill="#FFFFFF" cx="11.2827017" cy="11.3093049" rx="11.2827017" ry="11.3093049"></ellipse>
                <path d="M12.7982885,22.96875 C6.47402048,22.96875 1.34718826,17.8270202 1.34718826,11.484375 C1.34718826,5.14172983 6.47402048,0 12.7982885,0 C19.1225565,0 24.2493888,5.14172983 24.2493888,11.484375 C24.2493888,17.8270202 19.1225565,22.96875 12.7982885,22.96875 Z M12.7982885,20.5078125 C17.7673562,20.5078125 21.7955816,16.4678819 21.7955816,11.484375 C21.7955816,6.50086808 17.7673562,2.4609375 12.7982885,2.4609375 C7.82922077,2.4609375 3.80099546,6.50086808 3.80099546,11.484375 C3.80099546,16.4678819 7.82922077,20.5078125 12.7982885,20.5078125 Z" id="Oval-8" fill="#2C2C46" fill-rule="nonzero"></path>
                <path d="M12.7982885,19.2773437 C8.73268763,19.2773437 5.43686692,15.971946 5.43686692,11.8945312 C5.43686692,11.2885212 6.06951924,10.8917197 6.61281591,11.1569724 C6.66851714,11.1834173 6.70164835,11.1987974 6.74012474,11.2163303 C6.85235523,11.2674714 6.98356444,11.3249045 7.13211129,11.3870686 C7.55976166,11.5660322 8.03755108,11.7454708 8.55213243,11.9129595 C10.0108305,12.3877443 11.4642036,12.6715753 12.7982885,12.6715753 C14.1323734,12.6715753 15.5857465,12.3877443 17.0444446,11.9129595 C17.5590259,11.7454708 18.0368154,11.5660322 18.4644657,11.3870686 C18.6130126,11.3249045 18.7442218,11.2674714 18.8564523,11.2163303 C18.8949287,11.1987974 18.9280599,11.1834173 18.9556419,11.1703854 C19.5270578,10.8917197 20.1597101,11.2885212 20.1597101,11.8945312 C20.1597101,15.971946 16.8638894,19.2773437 12.7982885,19.2773437 Z M12.7982885,17.6367187 C15.5183554,17.6367187 17.7954048,15.7344237 18.3789077,13.1839964 C18.1140838,13.2827899 17.8370352,13.3798468 17.5494255,13.4734596 C15.9408646,13.9970226 14.3269786,14.3122003 12.7982885,14.3122003 C11.2695984,14.3122003 9.65571245,13.9970226 8.04715154,13.4734596 C7.75954185,13.3798468 7.48249318,13.2827899 7.21766935,13.1839964 C7.80117219,15.7344237 10.0782216,17.6367187 12.7982885,17.6367187 Z" id="Oval-8" fill="#2C2C46" fill-rule="nonzero"></path>
                <path d="M9.11757772,6.15234375 L9.11757772,8.203125 C9.11757772,8.65617108 9.48378002,9.0234375 9.93551345,9.0234375 C10.3872469,9.0234375 10.7534492,8.65617108 10.7534492,8.203125 L10.7534492,6.15234375 C10.7534492,5.69929767 10.3872469,5.33203125 9.93551345,5.33203125 C9.48378002,5.33203125 9.11757772,5.69929767 9.11757772,6.15234375 Z" id="Line" fill="#2C2C46" fill-rule="nonzero"></path>
                <path d="M14.43416,6.15234375 L14.43416,8.203125 C14.43416,8.65617108 14.8003623,9.0234375 15.2520957,9.0234375 C15.7038291,9.0234375 16.0700314,8.65617108 16.0700314,8.203125 L16.0700314,6.15234375 C16.0700314,5.69929767 15.7038291,5.33203125 15.2520957,5.33203125 C14.8003623,5.33203125 14.43416,5.69929767 14.43416,6.15234375 Z" id="Line-Copy-2" fill="#2C2C46" fill-rule="nonzero"></path>
            </g>
            <g id="emoji-copy-2" transform="translate(77.347188, 25.474432)">
                <ellipse id="Oval-2-Copy" fill="#FFFFFF" cx="22.5654034" cy="22.6186097" rx="22.5654034" ry="22.6186097"></ellipse>
                <path d="M25.596577,45.9375 C12.948041,45.9375 2.69437653,35.6540403 2.69437653,22.96875 C2.69437653,10.2834597 12.948041,0 25.596577,0 C38.2451131,0 48.4987775,10.2834597 48.4987775,22.96875 C48.4987775,35.6540403 38.2451131,45.9375 25.596577,45.9375 Z M25.596577,41.015625 C35.5347125,41.015625 43.5911631,32.9357638 43.5911631,22.96875 C43.5911631,13.0017362 35.5347125,4.921875 25.596577,4.921875 C15.6584415,4.921875 7.60199092,13.0017362 7.60199092,22.96875 C7.60199092,32.9357638 15.6584415,41.015625 25.596577,41.015625 Z" id="Oval-8" fill="#2C2C46" fill-rule="nonzero"></path>
                <path d="M25.596577,38.5546875 C17.4653753,38.5546875 10.8737338,31.943892 10.8737338,23.7890625 C10.8737338,22.5770424 12.1390385,21.7834394 13.2256318,22.3139447 C13.3370343,22.3668346 13.4032967,22.3975947 13.4802495,22.4326605 C13.7047105,22.5349428 13.9671289,22.649809 14.2642226,22.7741372 C15.1195233,23.1320644 16.0751022,23.4909416 17.1042649,23.825919 C20.021661,24.7754887 22.9284072,25.3431507 25.596577,25.3431507 C28.2647469,25.3431507 31.171493,24.7754887 34.0888892,23.825919 C35.1180519,23.4909416 36.0736307,23.1320644 36.9289315,22.7741372 C37.2260252,22.649809 37.4884436,22.5349428 37.7129045,22.4326605 C37.7898573,22.3975947 37.8561197,22.3668346 37.9112837,22.3407708 C39.0541156,21.7834394 40.3194202,22.5770424 40.3194202,23.7890625 C40.3194202,31.943892 33.7277788,38.5546875 25.596577,38.5546875 Z M25.596577,35.2734375 C31.0367108,35.2734375 35.5908096,31.4688473 36.7578153,26.3679927 C36.2281677,26.5655799 35.6740703,26.7596937 35.098851,26.9469192 C31.8817291,27.9940452 28.6539573,28.6244007 25.596577,28.6244007 C22.5391968,28.6244007 19.3114249,27.9940452 16.0943031,26.9469192 C15.5190837,26.7596937 14.9649864,26.5655799 14.4353387,26.3679927 C15.6023444,31.4688473 20.1564432,35.2734375 25.596577,35.2734375 Z" id="Oval-8" fill="#2C2C46" fill-rule="nonzero"></path>
                <path d="M18.2351554,12.3046875 L18.2351554,16.40625 C18.2351554,17.3123422 18.96756,18.046875 19.8710269,18.046875 C20.7744938,18.046875 21.5068984,17.3123422 21.5068984,16.40625 L21.5068984,12.3046875 C21.5068984,11.3985953 20.7744938,10.6640625 19.8710269,10.6640625 C18.96756,10.6640625 18.2351554,11.3985953 18.2351554,12.3046875 Z" id="Line" fill="#2C2C46" fill-rule="nonzero"></path>
                <path d="M28.8683199,12.3046875 L28.8683199,16.40625 C28.8683199,17.3123422 29.6007245,18.046875 30.5041914,18.046875 C31.4076583,18.046875 32.1400629,17.3123422 32.1400629,16.40625 L32.1400629,12.3046875 C32.1400629,11.3985953 31.4076583,10.6640625 30.5041914,10.6640625 C29.6007245,10.6640625 28.8683199,11.3985953 28.8683199,12.3046875 Z" id="Line-Copy-2" fill="#2C2C46" fill-rule="nonzero"></path>
            </g>
        </g>
        <path d="M33.1217545,13.7299012 L69.9139305,49.2270603 C70.5782579,49.8680046 71.6369859,49.8496662 72.2786657,49.1861004 C72.9203455,48.5225346 72.901986,47.4650203 72.2376587,46.824076 L35.4454827,11.3269169 C34.7811553,10.6859727 33.7224273,10.7043111 33.0807475,11.3678769 C32.4390677,12.0314427 32.4574272,13.088957 33.1217545,13.7299012 Z" id="Line" fill="#4CFFA5" fill-rule="nonzero"></path>
        <g id="Group-4" transform="translate(8.779951, 64.312500)" fill-rule="nonzero" fill="#FEBCFF">
            <path d="M1.97757493,5.91434086 L5.31267962,2.72106328 C5.76678515,2.28626883 6.50098133,2.29419179 6.94918492,2.74163699 L9.8403614,5.62792143 C11.0967181,6.88215232 13.1317585,6.88279809 14.3885666,5.62811665 L17.2494231,2.7721009 C17.6884219,2.33384491 18.4028586,2.33382507 18.8404136,2.77063964 L21.4820767,5.40783297 C22.7371373,6.66076995 24.7691176,6.66374554 26.0234437,5.41154186 L28.8746487,2.56516124 C29.312355,2.12819561 30.0193671,2.12852331 30.460251,2.56866122 L33.4546837,5.55802713 C33.8629838,5.96563638 34.5247883,5.96545575 34.9328653,5.55762368 C35.3409423,5.14979161 35.3407615,4.48874581 34.9324614,4.08113656 L31.9380287,1.09177065 C30.6811671,-0.162964295 28.6511692,-0.163905197 27.396871,1.08827067 L24.545666,3.93465129 C24.1085965,4.37098124 23.3995991,4.369943 22.9598544,3.9309424 L20.3181912,1.29374908 C19.0643332,0.0420126393 17.0269105,0.0420692354 15.7716454,1.29521033 L12.9107889,4.15122608 C12.4704759,4.59079405 11.7584213,4.5905681 11.3181391,4.15103086 L8.42696261,1.26474642 C7.17474102,0.0146436688 5.14129959,-0.00729988289 3.86608722,1.2136834 L0.53098253,4.40696098 C0.114253359,4.80596852 0.100258356,5.46686652 0.499723816,5.88311798 C0.899189276,6.29936944 1.56084576,6.3133484 1.97757493,5.91434086 Z" id="Path-2-Copy"></path>
            <path d="M14.1395565,11.1756154 L17.4746612,7.98233783 C17.9287668,7.54754337 18.6629629,7.55546633 19.1111665,8.00291154 L22.002343,10.889196 C23.2586997,12.1434269 25.2937401,12.1440726 26.5505482,10.8893912 L29.4114047,8.03337545 C29.8504035,7.59511946 30.5648402,7.59509961 31.0023952,8.03191419 L33.6440583,10.6691075 C34.8991189,11.9220445 36.9310992,11.9250201 38.1854253,10.6728164 L41.0366303,7.82643579 C41.4743366,7.38947016 42.1813487,7.38979786 42.6222326,7.82993577 L45.6166653,10.8193017 C46.0249654,11.2269109 46.6867699,11.2267303 47.0948469,10.8188982 C47.5029239,10.4110662 47.5027431,9.75002035 47.094443,9.34241111 L44.1000103,6.3530452 C42.8431487,5.09831025 40.8131508,5.09736935 39.5588526,6.34954522 L36.7076476,9.19592583 C36.2705781,9.63225578 35.5615807,9.63121754 35.121836,9.19221694 L32.4801728,6.55502362 C31.2263148,5.30328718 29.1888921,5.30334378 27.933627,6.55648488 L25.0727705,9.41250063 C24.6324575,9.8520686 23.9204029,9.85184265 23.4801207,9.41230541 L20.5889442,6.52602097 C19.3367226,5.27591821 17.3032812,5.25397466 16.0280688,6.47495795 L12.6929641,9.66823553 C12.276235,10.0672431 12.26224,10.7281411 12.6617054,11.1443925 C13.0611709,11.560644 13.7228274,11.5746229 14.1395565,11.1756154 Z" id="Path-2-Copy-2"></path>
        </g>
    </g>
</svg>
